<?xml version="1.0" encoding="utf-8"?>
<!-- Generator: Adobe Illustrator 16.0.0, SVG Export Plug-In . SVG Version: 6.00 Build 0)  -->
<!DOCTYPE svg PUBLIC "-//W3C//DTD SVG 1.1//EN" "http://www.w3.org/Graphics/SVG/1.1/DTD/svg11.dtd">
<svg version="1.1" id="Logo_-_White_1_" xmlns="http://www.w3.org/2000/svg" xmlns:xlink="http://www.w3.org/1999/xlink" x="0px"
	 y="0px" width="141.732px" height="141.732px" viewBox="0 0 141.732 141.732" style="enable-background:new 0 0 141.732 141.732;"
	 xml:space="preserve">
<style type="text/css">
<![CDATA[
	.st0{fill-rule:evenodd;clip-rule:evenodd;fill:#FFFFFF;}
]]>
</style>
<g id="Pen">
	<g>
		<path class="st0" d="M41.095,137.759c0,0,0.035-0.035,0.095-0.097l-0.088-0.031C41.098,137.673,41.099,137.716,41.095,137.759z
			 M22.438,75.063c0,0,0.417,2.428-0.539,5.016c-0.928,2.517-3.229,5.195-3.229,5.195s23.62,27.244,22.48,51.332l17.857-38.335
			c-1.641-0.874-2.794-2.602-2.841-4.641c-0.068-2.967,2.206-5.425,5.079-5.489s5.256,2.288,5.324,5.255
			c0.068,2.968-2.206,5.425-5.079,5.49c-0.437,0.01-0.856-0.053-1.264-0.148L42.87,136.001c7.393-7.177,36.977-34.384,67.116-41.054
			c0,0,1.276-6.015,3.947-10.569c3.124-5.326,7.714-9.314,7.714-9.314H22.438z"/>
	</g>
</g>
<g id="Cloud">
	<g>
		<path class="st0" d="M129.886,58.383c-0.446-14.478-11.146-16.482-11.146-16.482s3.656-13.883-10.01-21.114
			c-11.724-6.203-19.386-0.954-21.988,1.402c3.216,3.954,3.855,8.036,3.855,8.036s6.932-7.958,19.15-1.883
			c11.388,5.662,8.341,16.534,8.341,16.534s8.917,1.57,9.288,12.907c0.303,9.24-7.059,10.116-7.059,10.116H38.215
			c0,0-11.713-4.731-7.802-19.535c3.146-11.908,17.833-13.43,17.833-13.43s0.543-20.058,20.99-20.058
			c7.643,0,12.59,2.489,15.778,5.461c-1.79-5.436-7.59-16.746-24.9-16.746c-24.537,0-25.189,25.614-25.189,25.614
			s-17.625,1.944-21.4,17.15c-4.693,18.905,9.362,24.946,9.362,24.946h98.528C121.415,71.302,130.249,70.183,129.886,58.383z"/>
	</g>
</g>
</svg>
