<?xml version="1.0" encoding="utf-8"?>
<!-- Generator: Adobe Illustrator 16.0.0, SVG Export Plug-In . SVG Version: 6.00 Build 0)  -->
<!DOCTYPE svg PUBLIC "-//W3C//DTD SVG 1.1//EN" "http://www.w3.org/Graphics/SVG/1.1/DTD/svg11.dtd">
<svg version="1.1" id="Logo_-_White_Shadow_1_" xmlns="http://www.w3.org/2000/svg" xmlns:xlink="http://www.w3.org/1999/xlink"
	 x="0px" y="0px" width="141.732px" height="141.732px" viewBox="0 0 141.732 141.732"
	 style="enable-background:new 0 0 141.732 141.732;" xml:space="preserve">
<style type="text/css">
<![CDATA[
	.st0{opacity:0.502;}
	.st1{fill-rule:evenodd;clip-rule:evenodd;}
	.st2{fill-rule:evenodd;clip-rule:evenodd;fill:#FFFFFF;}
]]>
</style>
<g id="Shadow_1_" class="st0">
	<g id="Pen">
		<g>
			<path class="st1" d="M41.879,138.804c0,0,0.034-0.035,0.095-0.098l-0.089-0.031C41.882,138.718,41.882,138.761,41.879,138.804z
				 M23.221,76.107c0,0,0.417,2.428-0.538,5.016c-0.928,2.517-3.229,5.195-3.229,5.195s23.62,27.245,22.48,51.333l17.857-38.336
				c-1.641-0.874-2.793-2.602-2.84-4.641c-0.068-2.967,2.206-5.425,5.079-5.489c2.873-0.064,5.256,2.288,5.324,5.255
				c0.068,2.968-2.206,5.426-5.078,5.49c-0.437,0.01-0.856-0.053-1.264-0.148l-17.358,37.265
				c7.392-7.176,36.978-34.386,67.117-41.056c0,0,1.276-6.015,3.947-10.568c3.124-5.327,7.714-9.315,7.714-9.315H23.221z"/>
		</g>
	</g>
	<g id="Cloud">
		<g>
			<path class="st1" d="M130.669,59.427c-0.445-14.478-11.146-16.482-11.146-16.482s3.655-13.883-10.01-21.114
				c-11.724-6.203-19.385-0.953-21.988,1.402c3.216,3.954,3.855,8.036,3.855,8.036s6.932-7.958,19.15-1.883
				c11.388,5.662,8.341,16.534,8.341,16.534s8.916,1.57,9.288,12.907c0.303,9.24-7.059,10.116-7.059,10.116H38.999
				c0,0-11.713-4.731-7.802-19.535c3.146-11.908,17.832-13.43,17.832-13.43S49.573,15.92,70.02,15.92
				c7.643,0,12.59,2.489,15.778,5.461c-1.79-5.436-7.59-16.746-24.9-16.746c-24.537,0-25.189,25.614-25.189,25.614
				s-17.624,1.944-21.399,17.15c-4.693,18.905,9.362,24.946,9.362,24.946h98.527C122.198,72.346,131.032,71.227,130.669,59.427z"/>
		</g>
	</g>
</g>
<g id="Logo_1_">
	<g id="Pen_1_">
		<g>
			<path class="st2" d="M41.095,137.759c0,0,0.035-0.035,0.095-0.097l-0.088-0.031C41.098,137.673,41.099,137.716,41.095,137.759z
				 M22.438,75.063c0,0,0.417,2.428-0.539,5.016c-0.928,2.517-3.229,5.195-3.229,5.195s23.62,27.244,22.48,51.332l17.857-38.335
				c-1.641-0.874-2.794-2.602-2.841-4.641c-0.068-2.967,2.206-5.425,5.079-5.489s5.256,2.288,5.324,5.255
				c0.068,2.968-2.206,5.425-5.079,5.49c-0.437,0.01-0.856-0.053-1.264-0.148L42.87,136.001
				c7.393-7.177,36.977-34.384,67.116-41.054c0,0,1.276-6.015,3.947-10.569c3.124-5.326,7.714-9.314,7.714-9.314H22.438z"/>
		</g>
	</g>
	<g id="Cloud_1_">
		<g>
			<path class="st2" d="M129.886,58.383c-0.446-14.478-11.146-16.482-11.146-16.482s3.656-13.883-10.01-21.114
				c-11.724-6.203-19.386-0.954-21.988,1.402c3.216,3.954,3.855,8.036,3.855,8.036s6.932-7.958,19.15-1.883
				c11.388,5.662,8.341,16.534,8.341,16.534s8.917,1.57,9.288,12.907c0.303,9.24-7.059,10.116-7.059,10.116H38.215
				c0,0-11.713-4.731-7.802-19.535c3.146-11.908,17.833-13.43,17.833-13.43s0.543-20.058,20.99-20.058
				c7.643,0,12.59,2.489,15.778,5.461c-1.79-5.436-7.59-16.746-24.9-16.746c-24.537,0-25.189,25.614-25.189,25.614
				s-17.625,1.944-21.4,17.15c-4.693,18.905,9.362,24.946,9.362,24.946h98.528C121.415,71.302,130.249,70.183,129.886,58.383z"/>
		</g>
	</g>
</g>
</svg>
